<?xml version="1.0" encoding="UTF-8" standalone="no"?>
<svg
   viewBox="0 0 96 73.779999"
   id="morse-code"
   version="1.1"
   sodipodi:docname="CWplayer.svg"
   width="96"
   height="73.779999"
   inkscape:version="1.4 (86a8ad7, 2024-10-11)"
   xmlns:inkscape="http://www.inkscape.org/namespaces/inkscape"
   xmlns:sodipodi="http://sodipodi.sourceforge.net/DTD/sodipodi-0.dtd"
   xmlns="http://www.w3.org/2000/svg"
   xmlns:svg="http://www.w3.org/2000/svg">
  <defs
     id="defs23" />
  <sodipodi:namedview
     id="namedview23"
     pagecolor="#ffffff"
     bordercolor="#111111"
     borderopacity="1"
     inkscape:showpageshadow="0"
     inkscape:pageopacity="0"
     inkscape:pagecheckerboard="1"
     inkscape:deskcolor="#d1d1d1"
     inkscape:zoom="7.90625"
     inkscape:cx="47.936759"
     inkscape:cy="36.869565"
     inkscape:window-width="1920"
     inkscape:window-height="1004"
     inkscape:window-x="-8"
     inkscape:window-y="-8"
     inkscape:window-maximized="1"
     inkscape:current-layer="morse-code" />
  <g
     id="g23"
     transform="translate(0,-11.12)">
    <rect
       width="77.849998"
       height="4.7600002"
       x="9.1000004"
       y="37.669998"
       fill="#b4563e"
       id="rect1" />
    <rect
       width="89.110001"
       height="20.74"
       x="3.4400001"
       y="63.169998"
       fill="#ffa16b"
       id="rect2" />
    <rect
       width="79.669998"
       height="6.6199999"
       x="8.1700001"
       y="66.919998"
       fill="#ffc993"
       rx="1.5"
       id="rect3" />
    <rect
       width="94"
       height="6.1599998"
       x="1"
       y="77.739998"
       fill="#b4563e"
       id="rect4" />
    <rect
       width="38"
       height="6.1599998"
       x="29"
       y="77.739998"
       fill="#f06a3e"
       rx="1.1900001"
       id="rect5" />
    <rect
       width="84.07"
       height="6.1599998"
       x="5.9699998"
       y="57"
       fill="#b4563e"
       id="rect6" />
    <rect
       width="38"
       height="6.1599998"
       x="29"
       y="57"
       fill="#f06a3e"
       rx="1.1900001"
       id="rect7" />
    <path
       fill="#9b423e"
       d="m 48.78,42.43 h -26.5 a 32.92,32.92 0 0 1 0.14,-4.76 h 26.22 a 30.05,30.05 0 0 1 0.14,4.76 z"
       id="path7" />
    <path
       fill="#ffab2f"
       d="m 35.53,30.38 a 9.25,9.25 0 0 0 -9.25,9.25 V 57 h 18.5 V 39.63 a 9.25,9.25 0 0 0 -9.25,-9.25 z"
       id="path8" />
    <path
       fill="#ffd84d"
       d="M 30.28,51 V 39.86 A 5.4,5.4 0 0 1 35,34.41 5.25,5.25 0 0 1 40.77,39.63 V 51 a 2,2 0 0 1 -2.05,2 h -6.4 a 2,2 0 0 1 -2.04,-2 z"
       id="path9" />
    <path
       fill="#ffd84d"
       d="M 29.36,52.69 V 40.51 A 6.47,6.47 0 0 1 35,34 a 6.29,6.29 0 0 1 7,6.23 v 12.46 a 2.46,2.46 0 0 1 -2.45,2.46 h -7.74 a 2.46,2.46 0 0 1 -2.45,-2.46 z"
       id="path10" />
    <circle
       cx="35.529999"
       cy="40.049999"
       r="4.9000001"
       fill="#c8653e"
       id="circle10" />
    <rect
       width="6.1599998"
       height="5.3200002"
       x="9.1000004"
       y="42.43"
       fill="#ffab2f"
       id="rect10" />
    <rect
       width="11.3"
       height="5.3200002"
       x="6.48"
       y="32.34"
       fill="#ffab2f"
       rx="2.3699999"
       id="rect11" />
    <rect
       width="6.1599998"
       height="5.3200002"
       x="53.18"
       y="42.43"
       fill="#ffab2f"
       id="rect12" />
    <rect
       width="11.3"
       height="5.3200002"
       x="50.57"
       y="32.34"
       fill="#ffab2f"
       rx="2.3699999"
       id="rect13" />
    <rect
       width="6.2600002"
       height="5.3200002"
       x="53.09"
       y="32.34"
       fill="#ffd84d"
       rx="2.3699999"
       id="rect14" />
    <rect
       width="6.2600002"
       height="5.3200002"
       x="9.0500002"
       y="32.34"
       fill="#ffd84d"
       rx="2.3699999"
       id="rect15" />
    <rect
       width="8.6899996"
       height="4.27"
       x="9.1000004"
       y="52.73"
       fill="#ffab2f"
       id="rect16" />
    <rect
       width="8.6899996"
       height="4.27"
       x="51.919998"
       y="52.73"
       fill="#ffab2f"
       id="rect17" />
    <rect
       width="18.959999"
       height="5.3200002"
       x="69.620003"
       y="32.34"
       fill="#ffab2f"
       rx="2.3699999"
       id="rect18" />
    <rect
       width="9.9099998"
       height="5.3200002"
       x="74.150002"
       y="32.34"
       fill="#ffd84d"
       rx="2.3699999"
       id="rect19" />
    <path
       fill="#ff7e57"
       d="m 79.11,12.1 a 8.14,8.14 0 0 0 -8,9.64 l 2,10.6 h 12 l 2,-10.6 a 8.14,8.14 0 0 0 -8,-9.64 z"
       id="path19" />
    <path
       fill="#ffa16b"
       d="m 84.53,26.12 c 5.66,-4.87 1.91,-14 -5.42,-14 -6.24,0 -9.88,7.22 -5.85,12.66 a 7.78,7.78 0 0 0 11.27,1.34 z"
       id="path20" />
    <path
       fill="#ffc489"
       d="m 81,20.62 a 1.78,1.78 0 0 0 1.26,-3 c -1.72,-2.07 -5.19,-2.13 -6.39,0.64 a 1.75,1.75 0 0 0 1.66,2.39 z"
       id="path21" />
    <path
       fill="#302d3d"
       d="M 95,76.74 H 93.55 V 63.17 a 1,1 0 0 0 -1,-1 H 91 V 57 A 1,1 0 0 0 90,56 H 61.61 v -3.27 a 1,1 0 0 0 -1,-1 h -8.69 a 1,1 0 0 0 -1,1 V 56 H 45.77 V 43.43 h 6.41 v 4.32 a 1,1 0 0 0 1,1 h 6.17 a 1,1 0 0 0 1,-1 V 43.43 H 87 a 1,1 0 0 0 1,-1 v -4.25 a 3.4,3.4 0 0 0 1.63,-2.89 v -0.58 a 3.35,3.35 0 0 0 -3.25,-3.36 l 1.76,-9.43 a 9.15,9.15 0 1 0 -18,0 l 1.76,9.43 a 3.36,3.36 0 0 0 -3.25,3.36 4,4 0 0 0 0.3,2 h -6.38 a 4.2,4.2 0 0 0 0.3,-2 3.4,3.4 0 0 0 -3.38,-3.38 h -6.55 a 3.39,3.39 0 0 0 -3.37,3.38 4,4 0 0 0 0.3,2 h -4.54 a 10.23,10.23 0 0 0 -19.61,0 h -7.24 a 4.2,4.2 0 0 0 0.3,-2 3.39,3.39 0 0 0 -3.38,-3.38 H 8.85 a 3.39,3.39 0 0 0 -3.37,3.38 v 0.58 a 3.37,3.37 0 0 0 2.61,3.28 v 9.18 a 1,1 0 0 0 1,1 h 6.17 a 1,1 0 0 0 1,-1 v -4.32 h 9 V 56 h -6.5 v -3.27 a 1,1 0 0 0 -1,-1 H 9.09 a 1,1 0 0 0 -1,1 V 56 H 6 a 1,1 0 0 0 -1,1 v 5.18 H 3.44 a 1,1 0 0 0 -1,1 V 76.74 H 1 a 1,1 0 0 0 -1,1 v 6.16 a 1,1 0 0 0 1,1 h 94 a 1,1 0 0 0 1,-1 v -6.16 a 1,1 0 0 0 -1,-1 z m -42.08,-23 h 6.69 V 56 h -6.69 z m 5.43,-7 h -4.17 v -3.31 h 4.17 z M 73.61,15.68 a 7.14,7.14 0 0 1 12.52,5.87 L 84.3,31.33 H 73.91 l -1.83,-9.78 a 7.07,7.07 0 0 1 1.53,-5.87 z m -3,19.61 V 34.71 A 1.38,1.38 0 0 1 72,33.33 h 14.21 a 1.37,1.37 0 0 1 1.37,1.38 v 0.58 a 1.37,1.37 0 0 1 -1.37,1.38 H 72 a 1.38,1.38 0 0 1 -1.38,-1.38 z m -19.05,0 v -0.58 a 1.37,1.37 0 0 1 1.37,-1.38 h 6.55 a 1.38,1.38 0 0 1 1.38,1.38 v 0.58 a 1.38,1.38 0 0 1 -1.38,1.38 H 52.94 A 1.37,1.37 0 0 1 51.57,35.29 Z M 86,38.67 v 2.76 H 45.77 c 0,-2 0,-2 0,-2.76 z M 7.48,35.29 v -0.58 a 1.38,1.38 0 0 1 1.37,-1.38 h 6.55 a 1.38,1.38 0 0 1 1.38,1.38 v 0.58 A 1.38,1.38 0 0 1 15.4,36.67 H 8.85 A 1.38,1.38 0 0 1 7.48,35.29 Z m 6.78,11.46 h -4.17 v -3.32 h 4.17 z m -4.17,-5.32 v -2.76 h 15.23 c -0.05,0.81 0,0.76 0,2.76 z m 17.74,-4.76 a 8.24,8.24 0 0 1 15.39,0 c 0.74,1.85 0.55,1.43 0.55,19.32 H 27.28 c 0,-17.9 -0.18,-17.48 0.55,-19.32 z M 10.09,53.73 h 6.69 V 56 H 10.09 Z M 7,58 h 82 v 4.18 H 7 Z M 4.44,64.17 H 91.55 V 76.74 H 4.44 Z M 94,82.9 H 2 v -4.16 h 92 z"
       id="path22" />
    <path
       fill="#302d3d"
       d="m 40.36,36.67 a 5.9,5.9 0 1 0 0,6.76 5.89,5.89 0 0 0 0,-6.76 z m -2.89,6.76 a 3.9,3.9 0 1 1 0,-6.76 3.91,3.91 0 0 1 0,6.76 z"
       id="path23" />
  </g>
</svg>
