<svg xmlns="http://www.w3.org/2000/svg" viewBox="0 0 96 96" id="morse-code">
  <g>
    <rect width="77.85" height="4.76" x="9.1" y="37.67" fill="#b4563e"></rect>
    <rect width="89.11" height="20.74" x="3.44" y="63.17" fill="#ffa16b"></rect>
    <rect width="79.67" height="6.62" x="8.17" y="66.92" fill="#ffc993" rx="1.5"></rect>
    <rect width="94" height="6.16" x="1" y="77.74" fill="#b4563e"></rect>
    <rect width="38" height="6.16" x="29" y="77.74" fill="#f06a3e" rx="1.19"></rect>
    <rect width="84.07" height="6.16" x="5.97" y="57" fill="#b4563e"></rect>
    <rect width="38" height="6.16" x="29" y="57" fill="#f06a3e" rx="1.19"></rect>
    <path fill="#9b423e" d="M48.78,42.43H22.28a32.92,32.92,0,0,1,.14-4.76H48.64A30.05,30.05,0,0,1,48.78,42.43Z"></path>
    <path fill="#ffab2f" d="M35.53,30.38a9.25,9.25,0,0,0-9.25,9.25V57h18.5V39.63A9.25,9.25,0,0,0,35.53,30.38Z"></path>
    <path fill="#ffd84d" d="M30.28,51V39.86A5.4,5.4,0,0,1,35,34.41a5.25,5.25,0,0,1,5.77,5.22V51a2,2,0,0,1-2.05,2h-6.4A2,2,0,0,1,30.28,51Z"></path>
    <path fill="#ffd84d" d="M29.36,52.69V40.51A6.47,6.47,0,0,1,35,34,6.29,6.29,0,0,1,42,40.23V52.69a2.46,2.46,0,0,1-2.45,2.46H31.81A2.46,2.46,0,0,1,29.36,52.69Z"></path>
    <circle cx="35.53" cy="40.05" r="4.9" fill="#c8653e"></circle>
    <rect width="6.16" height="5.32" x="9.1" y="42.43" fill="#ffab2f"></rect>
    <rect width="11.3" height="5.32" x="6.48" y="32.34" fill="#ffab2f" rx="2.37"></rect>
    <rect width="6.16" height="5.32" x="53.18" y="42.43" fill="#ffab2f"></rect>
    <rect width="11.3" height="5.32" x="50.57" y="32.34" fill="#ffab2f" rx="2.37"></rect>
    <rect width="6.26" height="5.32" x="53.09" y="32.34" fill="#ffd84d" rx="2.37"></rect>
    <rect width="6.26" height="5.32" x="9.05" y="32.34" fill="#ffd84d" rx="2.37"></rect>
    <rect width="8.69" height="4.27" x="9.1" y="52.73" fill="#ffab2f"></rect>
    <rect width="8.69" height="4.27" x="51.92" y="52.73" fill="#ffab2f"></rect>
    <rect width="18.96" height="5.32" x="69.62" y="32.34" fill="#ffab2f" rx="2.37"></rect>
    <rect width="9.91" height="5.32" x="74.15" y="32.34" fill="#ffd84d" rx="2.37"></rect>
    <path fill="#ff7e57" d="M79.11,12.1a8.14,8.14,0,0,0-8,9.64l2,10.6h12l2-10.6A8.14,8.14,0,0,0,79.11,12.1Z"></path>
    <path fill="#ffa16b" d="M84.53,26.12c5.66-4.87,1.91-14-5.42-14-6.24,0-9.88,7.22-5.85,12.66A7.78,7.78,0,0,0,84.53,26.12Z"></path>
    <path fill="#ffc489" d="M81,20.62a1.78,1.78,0,0,0,1.26-3c-1.72-2.07-5.19-2.13-6.39.64a1.75,1.75,0,0,0,1.66,2.39Z"></path>
    <path fill="#302d3d" d="M95,76.74H93.55V63.17a1,1,0,0,0-1-1H91V57a1,1,0,0,0-1-1H61.61V52.73a1,1,0,0,0-1-1H51.92a1,1,0,0,0-1,1V56H45.77V43.43h6.41v4.32a1,1,0,0,0,1,1h6.17a1,1,0,0,0,1-1V43.43H87a1,1,0,0,0,1-1V38.18a3.4,3.4,0,0,0,1.63-2.89v-.58a3.35,3.35,0,0,0-3.25-3.36l1.76-9.43a9.15,9.15,0,1,0-18,0l1.76,9.43a3.36,3.36,0,0,0-3.25,3.36,4,4,0,0,0,.3,2H62.57a4.2,4.2,0,0,0,.3-2,3.4,3.4,0,0,0-3.38-3.38H52.94a3.39,3.39,0,0,0-3.37,3.38,4,4,0,0,0,.3,2H45.33a10.23,10.23,0,0,0-19.61,0H18.48a4.2,4.2,0,0,0,.3-2,3.39,3.39,0,0,0-3.38-3.38H8.85a3.39,3.39,0,0,0-3.37,3.38v.58a3.37,3.37,0,0,0,2.61,3.28v9.18a1,1,0,0,0,1,1h6.17a1,1,0,0,0,1-1V43.43h9V56h-6.5V52.73a1,1,0,0,0-1-1H9.09a1,1,0,0,0-1,1V56H6a1,1,0,0,0-1,1v5.18H3.44a1,1,0,0,0-1,1V76.74H1a1,1,0,0,0-1,1V83.9a1,1,0,0,0,1,1H95a1,1,0,0,0,1-1V77.74A1,1,0,0,0,95,76.74Zm-42.08-23h6.69V56H52.92Zm5.43-7H54.18V43.43h4.17ZM73.61,15.68a7.14,7.14,0,0,1,12.52,5.87L84.3,31.33H73.91l-1.83-9.78A7.07,7.07,0,0,1,73.61,15.68Zm-3,19.61v-.58A1.38,1.38,0,0,1,72,33.33H86.21a1.37,1.37,0,0,1,1.37,1.38v.58a1.37,1.37,0,0,1-1.37,1.38H72A1.38,1.38,0,0,1,70.62,35.29Zm-19.05,0v-.58a1.37,1.37,0,0,1,1.37-1.38h6.55a1.38,1.38,0,0,1,1.38,1.38v.58a1.38,1.38,0,0,1-1.38,1.38H52.94A1.37,1.37,0,0,1,51.57,35.29ZM86,38.67v2.76H45.77c0-2,0-2,0-2.76ZM7.48,35.29v-.58a1.38,1.38,0,0,1,1.37-1.38H15.4a1.38,1.38,0,0,1,1.38,1.38v.58a1.38,1.38,0,0,1-1.38,1.38H8.85A1.38,1.38,0,0,1,7.48,35.29Zm6.78,11.46H10.09V43.43h4.17Zm-4.17-5.32V38.67H25.32c-.05.81,0,.76,0,2.76Zm17.74-4.76a8.24,8.24,0,0,1,15.39,0c.74,1.85.55,1.43.55,19.32H27.28C27.28,38.09,27.1,38.51,27.83,36.67ZM10.09,53.73h6.69V56H10.09ZM7,58H89v4.18H7ZM4.44,64.17H91.55V76.74H4.44ZM94,82.9H2V78.74H94Z"></path>
    <path fill="#302d3d" d="M40.36,36.67a5.9,5.9,0,1,0,0,6.76A5.89,5.89,0,0,0,40.36,36.67Zm-2.89,6.76a3.9,3.9,0,1,1,0-6.76A3.91,3.91,0,0,1,37.47,43.43Z"></path>
  </g>
</svg>
